<mxfile host="app.diagrams.net" modified="2023-04-08T13:14:25.614Z" agent="Mozilla/5.0 (Windows NT 10.0; Win64; x64) AppleWebKit/537.36 (KHTML, like Gecko) Chrome/111.0.0.0 Safari/537.36" etag="4zLzQPoiR8TYnb--XSBP" version="21.1.4" type="github">
  <diagram name="第 1 页" id="4R7jjcTpkgn8CsPSyv7L">
    <mxGraphModel dx="673" dy="691" grid="1" gridSize="10" guides="1" tooltips="1" connect="1" arrows="1" fold="1" page="1" pageScale="1" pageWidth="827" pageHeight="1169" math="0" shadow="0">
      <root>
        <mxCell id="0" />
        <mxCell id="1" parent="0" />
        <mxCell id="Qj1GLQCtHeF_PwoVw7FA-1" value="MonitorListener" style="shape=umlLifeline;perimeter=lifelinePerimeter;whiteSpace=wrap;html=1;container=1;collapsible=0;recursiveResize=0;outlineConnect=0;rounded=1;shadow=0;comic=0;labelBackgroundColor=none;strokeWidth=1;fontFamily=Verdana;fontSize=12;align=center;" vertex="1" parent="1">
          <mxGeometry x="1346" y="370" width="110" height="500" as="geometry" />
        </mxCell>
        <mxCell id="Qj1GLQCtHeF_PwoVw7FA-3" value="" style="html=1;points=[];perimeter=orthogonalPerimeter;rounded=0;shadow=0;comic=0;labelBackgroundColor=none;strokeWidth=1;fontFamily=Verdana;fontSize=12;align=center;" vertex="1" parent="Qj1GLQCtHeF_PwoVw7FA-1">
          <mxGeometry x="51" y="159" width="10" height="111" as="geometry" />
        </mxCell>
        <mxCell id="Qj1GLQCtHeF_PwoVw7FA-24" value="return" style="html=1;verticalAlign=bottom;endArrow=open;dashed=1;endSize=8;labelBackgroundColor=none;fontFamily=Verdana;fontSize=12;edgeStyle=elbowEdgeStyle;elbow=vertical;fontColor=default;entryX=0.971;entryY=0.849;entryDx=0;entryDy=0;entryPerimeter=0;exitX=-0.065;exitY=0.99;exitDx=0;exitDy=0;exitPerimeter=0;" edge="1" parent="Qj1GLQCtHeF_PwoVw7FA-1" source="Qj1GLQCtHeF_PwoVw7FA-19">
          <mxGeometry relative="1" as="geometry">
            <mxPoint x="-66.28999999999996" y="127.42999999999995" as="targetPoint" />
            <Array as="points">
              <mxPoint x="-22.5" y="128" />
            </Array>
            <mxPoint x="177.5" y="128" as="sourcePoint" />
          </mxGeometry>
        </mxCell>
        <mxCell id="Qj1GLQCtHeF_PwoVw7FA-47" value="onMessage" style="html=1;align=left;spacingLeft=2;endArrow=block;rounded=0;edgeStyle=orthogonalEdgeStyle;curved=0;rounded=0;strokeWidth=1;fontSize=12;labelBackgroundColor=none;fontColor=default;" edge="1" parent="Qj1GLQCtHeF_PwoVw7FA-1">
          <mxGeometry relative="1" as="geometry">
            <mxPoint x="61" y="180" as="sourcePoint" />
            <Array as="points">
              <mxPoint x="91" y="210" />
            </Array>
            <mxPoint x="66" y="210" as="targetPoint" />
          </mxGeometry>
        </mxCell>
        <mxCell id="Qj1GLQCtHeF_PwoVw7FA-48" value="" style="html=1;points=[];perimeter=orthogonalPerimeter;rounded=0;shadow=0;comic=0;labelBackgroundColor=none;strokeWidth=1;fontFamily=Verdana;fontSize=12;align=center;" vertex="1" parent="Qj1GLQCtHeF_PwoVw7FA-1">
          <mxGeometry x="56" y="195" width="10" height="65" as="geometry" />
        </mxCell>
        <mxCell id="Qj1GLQCtHeF_PwoVw7FA-49" value="asyncSend" style="html=1;verticalAlign=bottom;endArrow=open;dashed=1;endSize=8;labelBackgroundColor=none;fontFamily=Verdana;fontSize=12;edgeStyle=elbowEdgeStyle;elbow=vertical;fontColor=default;entryX=-0.011;entryY=0.04;entryDx=0;entryDy=0;entryPerimeter=0;" edge="1" parent="Qj1GLQCtHeF_PwoVw7FA-1" target="Qj1GLQCtHeF_PwoVw7FA-37">
          <mxGeometry relative="1" as="geometry">
            <mxPoint x="324" y="231" as="targetPoint" />
            <Array as="points" />
            <mxPoint x="66" y="230" as="sourcePoint" />
          </mxGeometry>
        </mxCell>
        <mxCell id="Qj1GLQCtHeF_PwoVw7FA-50" value="return" style="html=1;verticalAlign=bottom;endArrow=open;dashed=1;endSize=8;labelBackgroundColor=none;fontFamily=Verdana;fontSize=12;edgeStyle=elbowEdgeStyle;elbow=vertical;fontColor=default;entryX=1.122;entryY=0.841;entryDx=0;entryDy=0;entryPerimeter=0;" edge="1" parent="Qj1GLQCtHeF_PwoVw7FA-1">
          <mxGeometry relative="1" as="geometry">
            <mxPoint x="66" y="249.77499999999986" as="targetPoint" />
            <Array as="points" />
            <mxPoint x="187.77999999999997" y="250.22000000000003" as="sourcePoint" />
          </mxGeometry>
        </mxCell>
        <mxCell id="Qj1GLQCtHeF_PwoVw7FA-10" value="Clinet" style="shape=umlLifeline;perimeter=lifelinePerimeter;whiteSpace=wrap;html=1;container=1;collapsible=0;recursiveResize=0;outlineConnect=0;rounded=1;shadow=0;comic=0;labelBackgroundColor=none;strokeWidth=1;fontFamily=Verdana;fontSize=12;align=center;" vertex="1" parent="1">
          <mxGeometry x="1750" y="370" width="100" height="500" as="geometry" />
        </mxCell>
        <mxCell id="Qj1GLQCtHeF_PwoVw7FA-13" value="数据实时处理" style="shape=umlActor;verticalLabelPosition=bottom;verticalAlign=top;html=1;fontSize=12;labelBackgroundColor=none;" vertex="1" parent="1">
          <mxGeometry x="1137" y="420" width="30" height="60" as="geometry" />
        </mxCell>
        <mxCell id="Qj1GLQCtHeF_PwoVw7FA-17" value="Redis" style="shape=umlLifeline;perimeter=lifelinePerimeter;whiteSpace=wrap;html=1;container=1;collapsible=0;recursiveResize=0;outlineConnect=0;rounded=1;shadow=0;comic=0;labelBackgroundColor=none;strokeWidth=1;fontFamily=Verdana;fontSize=12;align=center;" vertex="1" parent="1">
          <mxGeometry x="1623" y="370" width="100" height="500" as="geometry" />
        </mxCell>
        <mxCell id="Qj1GLQCtHeF_PwoVw7FA-18" value="" style="html=1;points=[];perimeter=orthogonalPerimeter;rounded=0;shadow=0;comic=0;labelBackgroundColor=none;strokeWidth=1;fontFamily=Verdana;fontSize=12;align=center;" vertex="1" parent="Qj1GLQCtHeF_PwoVw7FA-17">
          <mxGeometry x="46" y="158" width="10" height="30" as="geometry" />
        </mxCell>
        <mxCell id="Qj1GLQCtHeF_PwoVw7FA-19" value="" style="html=1;points=[];perimeter=orthogonalPerimeter;rounded=0;shadow=0;comic=0;labelBackgroundColor=none;strokeWidth=1;fontFamily=Verdana;fontSize=12;align=center;" vertex="1" parent="Qj1GLQCtHeF_PwoVw7FA-17">
          <mxGeometry x="46" y="90" width="10" height="38" as="geometry" />
        </mxCell>
        <mxCell id="Qj1GLQCtHeF_PwoVw7FA-23" value="publish" style="html=1;verticalAlign=bottom;endArrow=block;labelBackgroundColor=none;fontFamily=Verdana;fontSize=12;edgeStyle=elbowEdgeStyle;elbow=vertical;fontColor=default;exitX=0.896;exitY=0.269;exitDx=0;exitDy=0;exitPerimeter=0;entryX=0.01;entryY=0.057;entryDx=0;entryDy=0;entryPerimeter=0;" edge="1" parent="1" target="Qj1GLQCtHeF_PwoVw7FA-19">
          <mxGeometry x="-0.3347" relative="1" as="geometry">
            <mxPoint x="1278.96" y="460.8299999999999" as="sourcePoint" />
            <mxPoint x="1520" y="462" as="targetPoint" />
            <mxPoint as="offset" />
            <Array as="points" />
          </mxGeometry>
        </mxCell>
        <mxCell id="Qj1GLQCtHeF_PwoVw7FA-25" value="RedisIO" style="shape=umlLifeline;perimeter=lifelinePerimeter;whiteSpace=wrap;html=1;container=1;collapsible=0;recursiveResize=0;outlineConnect=0;rounded=1;shadow=0;comic=0;labelBackgroundColor=none;strokeWidth=1;fontFamily=Verdana;fontSize=12;align=center;" vertex="1" parent="1">
          <mxGeometry x="1223" y="370" width="100" height="500" as="geometry" />
        </mxCell>
        <mxCell id="Qj1GLQCtHeF_PwoVw7FA-26" value="" style="html=1;points=[];perimeter=orthogonalPerimeter;rounded=0;shadow=0;comic=0;labelBackgroundColor=none;strokeWidth=1;fontFamily=Verdana;fontSize=12;align=center;" vertex="1" parent="Qj1GLQCtHeF_PwoVw7FA-25">
          <mxGeometry x="47" y="70" width="10" height="70" as="geometry" />
        </mxCell>
        <mxCell id="Qj1GLQCtHeF_PwoVw7FA-28" value="writeRecord" style="html=1;verticalAlign=bottom;endArrow=block;labelBackgroundColor=none;fontFamily=Verdana;fontSize=12;edgeStyle=elbowEdgeStyle;elbow=vertical;fontColor=default;exitX=1;exitY=0.3333333333333333;exitDx=0;exitDy=0;exitPerimeter=0;" edge="1" parent="1" source="Qj1GLQCtHeF_PwoVw7FA-13">
          <mxGeometry relative="1" as="geometry">
            <mxPoint x="1200" y="440" as="sourcePoint" />
            <mxPoint x="1270" y="440" as="targetPoint" />
          </mxGeometry>
        </mxCell>
        <mxCell id="Qj1GLQCtHeF_PwoVw7FA-2" value="notify" style="html=1;verticalAlign=bottom;endArrow=open;dashed=1;endSize=8;labelBackgroundColor=none;fontFamily=Verdana;fontSize=12;edgeStyle=elbowEdgeStyle;elbow=vertical;fontColor=default;entryX=0.933;entryY=0.006;entryDx=0;entryDy=0;entryPerimeter=0;exitX=-0.09;exitY=0.023;exitDx=0;exitDy=0;exitPerimeter=0;" edge="1" parent="1" target="Qj1GLQCtHeF_PwoVw7FA-3" source="Qj1GLQCtHeF_PwoVw7FA-18">
          <mxGeometry relative="1" as="geometry">
            <mxPoint x="1335" y="528" as="targetPoint" />
            <Array as="points" />
            <mxPoint x="1515" y="528" as="sourcePoint" />
          </mxGeometry>
        </mxCell>
        <mxCell id="Qj1GLQCtHeF_PwoVw7FA-35" value="WebSocket&lt;br&gt;MonitorServer&amp;nbsp;" style="shape=umlLifeline;perimeter=lifelinePerimeter;whiteSpace=wrap;html=1;container=1;collapsible=0;recursiveResize=0;outlineConnect=0;rounded=1;shadow=0;comic=0;labelBackgroundColor=none;strokeWidth=1;fontFamily=Verdana;fontSize=12;align=center;" vertex="1" parent="1">
          <mxGeometry x="1490" y="370" width="100" height="500" as="geometry" />
        </mxCell>
        <mxCell id="Qj1GLQCtHeF_PwoVw7FA-37" value="" style="html=1;points=[];perimeter=orthogonalPerimeter;rounded=0;shadow=0;comic=0;labelBackgroundColor=none;strokeWidth=1;fontFamily=Verdana;fontSize=12;align=center;" vertex="1" parent="Qj1GLQCtHeF_PwoVw7FA-35">
          <mxGeometry x="45" y="220" width="10" height="262" as="geometry" />
        </mxCell>
        <mxCell id="Qj1GLQCtHeF_PwoVw7FA-38" value="" style="html=1;points=[];perimeter=orthogonalPerimeter;outlineConnect=0;targetShapes=umlLifeline;portConstraint=eastwest;newEdgeStyle={&quot;edgeStyle&quot;:&quot;elbowEdgeStyle&quot;,&quot;elbow&quot;:&quot;vertical&quot;,&quot;curved&quot;:0,&quot;rounded&quot;:0};fontSize=12;labelBackgroundColor=none;strokeWidth=1;" vertex="1" parent="Qj1GLQCtHeF_PwoVw7FA-35">
          <mxGeometry x="50" y="280" width="10" height="192" as="geometry" />
        </mxCell>
        <mxCell id="Qj1GLQCtHeF_PwoVw7FA-39" value="sendAllStatus" style="html=1;align=left;spacingLeft=2;endArrow=block;rounded=0;edgeStyle=orthogonalEdgeStyle;curved=0;rounded=0;strokeWidth=1;fontSize=12;labelBackgroundColor=none;fontColor=default;" edge="1" parent="Qj1GLQCtHeF_PwoVw7FA-35" target="Qj1GLQCtHeF_PwoVw7FA-38">
          <mxGeometry relative="1" as="geometry">
            <mxPoint x="55" y="260" as="sourcePoint" />
            <Array as="points">
              <mxPoint x="85" y="290" />
            </Array>
          </mxGeometry>
        </mxCell>
        <mxCell id="Qj1GLQCtHeF_PwoVw7FA-41" value="" style="html=1;points=[];perimeter=orthogonalPerimeter;rounded=0;shadow=0;comic=0;labelBackgroundColor=none;strokeWidth=1;fontFamily=Verdana;fontSize=12;align=center;" vertex="1" parent="Qj1GLQCtHeF_PwoVw7FA-35">
          <mxGeometry x="55" y="319" width="10" height="30" as="geometry" />
        </mxCell>
        <mxCell id="Qj1GLQCtHeF_PwoVw7FA-42" value="isOnline" style="html=1;align=left;spacingLeft=2;endArrow=block;rounded=0;edgeStyle=orthogonalEdgeStyle;curved=0;rounded=0;strokeWidth=1;fontSize=12;labelBackgroundColor=none;fontColor=default;" edge="1" parent="Qj1GLQCtHeF_PwoVw7FA-35">
          <mxGeometry relative="1" as="geometry">
            <mxPoint x="60" y="309" as="sourcePoint" />
            <Array as="points">
              <mxPoint x="90" y="339" />
            </Array>
            <mxPoint x="65" y="339" as="targetPoint" />
          </mxGeometry>
        </mxCell>
        <mxCell id="Qj1GLQCtHeF_PwoVw7FA-43" value="" style="html=1;points=[];perimeter=orthogonalPerimeter;rounded=0;shadow=0;comic=0;labelBackgroundColor=none;strokeWidth=1;fontFamily=Verdana;fontSize=12;align=center;" vertex="1" parent="Qj1GLQCtHeF_PwoVw7FA-35">
          <mxGeometry x="55" y="372" width="10" height="80" as="geometry" />
        </mxCell>
        <mxCell id="Qj1GLQCtHeF_PwoVw7FA-44" value="notifyClient" style="html=1;align=left;spacingLeft=2;endArrow=block;rounded=0;edgeStyle=orthogonalEdgeStyle;curved=0;rounded=0;strokeWidth=1;fontSize=12;labelBackgroundColor=none;fontColor=default;" edge="1" parent="Qj1GLQCtHeF_PwoVw7FA-35">
          <mxGeometry relative="1" as="geometry">
            <mxPoint x="60" y="362" as="sourcePoint" />
            <Array as="points">
              <mxPoint x="90" y="392" />
            </Array>
            <mxPoint x="65" y="392" as="targetPoint" />
          </mxGeometry>
        </mxCell>
        <mxCell id="Qj1GLQCtHeF_PwoVw7FA-40" value="loop" style="shape=umlFrame;whiteSpace=wrap;html=1;pointerEvents=0;strokeWidth=1;width=50;height=19;" vertex="1" parent="1">
          <mxGeometry x="1453" y="671" width="257" height="161" as="geometry" />
        </mxCell>
        <mxCell id="Qj1GLQCtHeF_PwoVw7FA-12" value="" style="html=1;points=[];perimeter=orthogonalPerimeter;rounded=0;shadow=0;comic=0;labelBackgroundColor=none;strokeWidth=1;fontFamily=Verdana;fontSize=12;align=center;" vertex="1" parent="1">
          <mxGeometry x="1795" y="782" width="10" height="38" as="geometry" />
        </mxCell>
        <mxCell id="Qj1GLQCtHeF_PwoVw7FA-45" value="sendText" style="html=1;verticalAlign=bottom;endArrow=block;labelBackgroundColor=none;fontFamily=Verdana;fontSize=12;edgeStyle=elbowEdgeStyle;elbow=vertical;fontColor=default;exitX=1.122;exitY=0.68;exitDx=0;exitDy=0;exitPerimeter=0;entryX=0.003;entryY=0.031;entryDx=0;entryDy=0;entryPerimeter=0;" edge="1" parent="1" target="Qj1GLQCtHeF_PwoVw7FA-12">
          <mxGeometry x="-0.0205" y="-1" relative="1" as="geometry">
            <mxPoint x="1556.2199999999998" y="783.5999999999999" as="sourcePoint" />
            <mxPoint x="1790" y="783" as="targetPoint" />
            <mxPoint as="offset" />
            <Array as="points" />
          </mxGeometry>
        </mxCell>
        <mxCell id="Qj1GLQCtHeF_PwoVw7FA-46" value="return" style="html=1;verticalAlign=bottom;endArrow=open;dashed=1;endSize=8;labelBackgroundColor=none;fontFamily=Verdana;fontSize=12;edgeStyle=elbowEdgeStyle;elbow=vertical;fontColor=default;entryX=0.971;entryY=0.849;entryDx=0;entryDy=0;entryPerimeter=0;exitX=0;exitY=0.722;exitDx=0;exitDy=0;exitPerimeter=0;" edge="1" parent="1" source="Qj1GLQCtHeF_PwoVw7FA-12">
          <mxGeometry relative="1" as="geometry">
            <mxPoint x="1554.71" y="811" as="targetPoint" />
            <Array as="points">
              <mxPoint x="1598.5" y="811.5699999999999" />
            </Array>
            <mxPoint x="1943" y="811.5699999999999" as="sourcePoint" />
          </mxGeometry>
        </mxCell>
      </root>
    </mxGraphModel>
  </diagram>
</mxfile>
